<?xml version="1.0" encoding="UTF-8" standalone="no"?><!DOCTYPE svg PUBLIC "-//W3C//DTD SVG 1.1//EN" "http://www.w3.org/Graphics/SVG/1.1/DTD/svg11.dtd"><svg width="100%" height="100%" viewBox="0 0 391 247" version="1.1" xmlns="http://www.w3.org/2000/svg" xmlns:xlink="http://www.w3.org/1999/xlink" xml:space="preserve" xmlns:serif="http://www.serif.com/" style="fill-rule:evenodd;clip-rule:evenodd;stroke-linejoin:round;stroke-miterlimit:2;"><rect id="ArtBoard1" x="-0" y="0" width="390.619" height="246.321" style="fill:none;"/><g id="_-Main---Logos---Südbayern" serif:id="-Main-/-Logos-/-Südbayern"><g id="Die-Autobahn_Logo_Farbe_RGB_NL-Südbayern"><path id="Shape" d="M169.283,83.428l11.191,-0c4.657,-0.181 9.19,1.526 12.575,4.735c3.244,3.127 5.018,7.481 4.884,11.989c-0,5.257 -1.579,9.512 -4.737,12.767c-3.158,3.254 -7.398,4.878 -12.722,4.871l-11.191,0l-0,-34.362Zm6.56,29.008l4.537,-0c3.598,-0 6.326,-1.113 8.184,-3.339c1.949,-2.562 2.916,-5.74 2.725,-8.955c0.111,-3 -0.962,-5.924 -2.987,-8.137c-2.127,-2.167 -5.081,-3.314 -8.11,-3.149l-4.433,-0l0.084,23.58Zm24.688,-28.242c-0.024,-0.975 0.356,-1.918 1.048,-2.603c0.692,-0.703 1.635,-1.099 2.62,-1.099c0.985,0 1.929,0.396 2.62,1.099c0.693,0.685 1.072,1.628 1.048,2.603c0.029,0.989 -0.35,1.946 -1.048,2.646c-0.691,0.703 -1.635,1.098 -2.62,1.098c-0.985,0 -1.928,-0.395 -2.62,-1.098c-0.72,-0.693 -1.119,-1.656 -1.1,-2.656l0.052,0.01Zm0.608,33.596l0,-25.858l6.11,-0l-0,25.847l-6.11,0.011Zm30.474,-6.73l-0,5.25c-1.824,1.176 -4.437,1.763 -7.839,1.763c-4.108,0 -7.349,-1.221 -9.724,-3.664c-2.402,-2.545 -3.685,-5.948 -3.563,-9.448c-0,-4.109 1.121,-7.335 3.363,-9.68c2.167,-2.317 5.216,-3.6 8.384,-3.528c2.973,-0.145 5.87,0.968 7.985,3.066c1.97,2.037 2.955,5.011 2.955,8.924c-0.024,1.228 -0.143,2.453 -0.356,3.664l-16.17,-0c0.348,1.73 1.341,3.262 2.777,4.283c1.551,1.026 3.382,1.544 5.24,1.481c2.467,0.06 4.887,-0.684 6.895,-2.121l0.053,0.01Zm-4.192,-8.315l-0,-0.766c0.009,-1.446 -0.463,-2.853 -1.341,-4c-0.921,-1.035 -2.266,-1.589 -3.647,-1.501c-1.448,-0.004 -2.832,0.593 -3.825,1.648c-1.179,1.289 -1.914,2.923 -2.096,4.661l10.909,-0.042Zm-35.273,60.893l-2.473,-7.769l-12.983,-0l-2.442,7.8l-6.717,0l11.6,-34.383l8.3,0l11.6,34.362l-6.885,-0.01Zm-13.769,-13.019l9.661,0l-0.45,-1.522c-1.153,-3.674 -2.096,-6.761 -2.83,-9.26c-0.733,-2.498 -1.173,-4.073 -1.351,-4.714l-0.199,-1.05c-0.301,1.701 -1.761,6.713 -4.381,15.035l-0.45,1.511Zm38.531,-12.798l6.162,0l0,25.827l-6.162,0l0,-4.199c-1.362,2.992 -4.003,4.493 -7.943,4.493c-2.278,0.137 -4.509,-0.689 -6.151,-2.278c-1.517,-1.761 -2.271,-4.054 -2.096,-6.373l0,-17.491l6.099,0l-0,16.063c-0.093,1.352 0.338,2.688 1.205,3.728c0.863,0.871 2.056,1.333 3.28,1.27c1.598,0.089 3.147,-0.57 4.192,-1.785c1.084,-1.583 1.584,-3.495 1.414,-5.407l0,-13.848Zm18.506,4.588l0,13.134c-0.106,0.899 0.201,1.798 0.835,2.443c0.633,0.645 1.526,0.967 2.424,0.875c1.266,0.012 2.506,-0.353 3.563,-1.05l0,5.249c-1.441,0.632 -3.007,0.929 -4.579,0.872c-5.589,-0 -8.383,-2.821 -8.383,-8.462l-0,-13.082l-3.878,0l0,-4.588l3.878,0l-0,-6.215l6.099,0l-0,6.215l6.413,0l-0,4.588l-6.372,0.021Zm21.158,21.649c-3.898,-0 -6.944,-1.222 -9.138,-3.664c-2.244,-2.598 -3.416,-5.954 -3.28,-9.386c-0.133,-3.568 1.083,-7.055 3.406,-9.764c2.282,-2.563 5.585,-3.975 9.012,-3.853c3.975,0 7.045,1.249 9.211,3.748c2.219,2.647 3.381,6.025 3.259,9.48c0.134,3.509 -1.035,6.943 -3.28,9.638c-2.187,2.541 -5.25,3.808 -9.19,3.801Zm-0,-21.67c-1.81,-0.068 -3.515,0.852 -4.454,2.405c-1.093,1.81 -1.632,3.901 -1.551,6.015c-0.077,2.102 0.474,4.178 1.583,5.964c1.021,1.481 2.703,2.365 4.5,2.365c1.797,0 3.48,-0.884 4.501,-2.365c1.079,-1.796 1.611,-3.869 1.53,-5.964c0.089,-2.132 -0.423,-4.246 -1.478,-6.099c-1.003,-1.565 -2.78,-2.455 -4.631,-2.321Zm22.226,-14.782l-0,14.121c1.593,-2.746 4.565,-4.392 7.733,-4.283c3.063,-0.073 5.993,1.251 7.965,3.601c2.095,2.393 3.143,5.63 3.143,9.711c0.094,3.374 -0.959,6.68 -2.986,9.375c-1.888,2.54 -4.899,3.992 -8.059,3.885c-3.196,0.111 -6.192,-1.558 -7.786,-4.336l0,3.968l-6.161,0l-0,-36.042l6.151,0Zm6.413,31.15c1.739,0.016 3.381,-0.799 4.422,-2.194c1.243,-1.633 1.873,-3.65 1.782,-5.701c0.135,-2.168 -0.508,-4.313 -1.813,-6.047c-1.061,-1.379 -2.706,-2.18 -4.443,-2.163c-1.686,0.006 -3.293,0.718 -4.433,1.963c-1.285,1.302 -1.928,3.262 -1.928,5.879c-0.151,2.204 0.496,4.389 1.823,6.153c1.133,1.363 2.82,2.139 4.59,2.11Zm16.62,-13.963l-0,-5.659c1.928,-1.197 4.716,-1.795 8.383,-1.795c6.986,-0 10.479,3.265 10.479,9.795l0,16.514l-6.057,0l0,-3.149c-1.194,2.215 -3.426,3.317 -6.717,3.317c-2.146,0.122 -4.249,-0.636 -5.826,-2.1c-1.443,-1.42 -2.23,-3.38 -2.169,-5.406c-0.088,-2.26 0.943,-4.417 2.756,-5.764c1.823,-1.386 4.474,-2.1 7.932,-2.1l3.773,0l-0,-1.575c0.082,-1.195 -0.322,-2.373 -1.121,-3.265c-1.081,-0.857 -2.453,-1.26 -3.825,-1.123c-2.711,-0.017 -5.363,0.788 -7.608,2.31Zm12.523,7.748l-3.144,-0c-1.295,-0.087 -2.581,0.26 -3.657,0.987c-0.807,0.588 -1.28,1.53 -1.268,2.53c-0,2.173 1.247,3.265 3.762,3.265c1.168,0.058 2.308,-0.376 3.143,-1.197c0.79,-0.853 1.205,-1.988 1.153,-3.15l0.011,-2.435Zm17.028,-24.935l0,14.614c1.397,-3.128 4.028,-4.692 7.891,-4.692c2.268,-0.095 4.472,0.765 6.078,2.372c1.544,1.575 2.316,3.86 2.316,6.856l-0,16.892l-6.11,0l0,-15.853c0.082,-1.386 -0.364,-2.751 -1.247,-3.821c-0.823,-0.909 -2.003,-1.412 -3.227,-1.376c-1.488,0.009 -2.911,0.614 -3.951,1.68c-1.167,1.12 -1.75,2.957 -1.75,5.512l0,13.858l-6.109,0l-0,-36.042l6.109,0Zm27.057,10.194l0,4.42c1.453,-3.163 4.097,-4.745 7.933,-4.745c2.277,-0.119 4.497,0.736 6.109,2.352c1.593,1.823 2.4,4.206 2.243,6.624l-0,17.197l-6.11,0l0,-15.905c0.102,-1.39 -0.333,-2.766 -1.215,-3.843c-0.868,-0.888 -2.073,-1.362 -3.312,-1.302c-1.552,-0.019 -3.03,0.664 -4.024,1.859c-1.178,1.517 -1.756,3.416 -1.624,5.333l0,13.858l-6.109,0l-0,-25.848l6.109,0Z" style="fill:#1a1a18;fill-rule:nonzero;"/><path id="Path" d="M103.977,153.874l0,-5.186l33.806,-0l-0,5.186l-33.806,-0Z" style="fill:#eed10f;fill-rule:nonzero;"/><path id="Path1" serif:id="Path" d="M69.993,153.874l0,-5.186l33.984,-0l0,5.186l-33.984,-0Z" style="fill:#c20e1a;fill-rule:nonzero;"/><path id="Shape1" serif:id="Shape" d="M49.873,158.945l-16.567,48.367l37.987,0l6.874,-48.388l-28.294,0.021Zm18.454,44.966l-30.243,-0l14.231,-41.544l21.922,0l-5.91,41.544Z" style="fill:#1a1a18;fill-rule:nonzero;"/><path id="Shape2" serif:id="Shape" d="M124.485,158.945l-28.294,-0l6.874,48.367l37.987,0l-16.567,-48.367Zm-24.364,3.422l21.922,0l14.231,41.554l-30.243,0l-5.91,-41.554Z" style="fill:#1a1a18;fill-rule:nonzero;"/><path id="Shape3" serif:id="Shape" d="M97.49,80.11l-20.622,0l-21.807,63.633l25.275,-0l5.177,-36.578l3.332,0l5.177,36.578l25.244,-0l-21.776,-63.633Zm-5.679,23.643l-9.264,0l-5.166,36.557l-17.511,-0l19.439,-56.777l15.719,-0l19.46,56.777l-17.511,-0l-5.166,-36.557Z" style="fill:#1a1a18;fill-rule:nonzero;"/><path id="Path2" serif:id="Path" d="M36.355,153.874l33.816,-0l0,-5.186l-33.816,-0l0,5.186Z" style="fill:#1a1a18;fill-rule:nonzero;"/><path id="Path3" serif:id="Path" d="M180.674,189.129c-1.462,-0.864 -3.124,-1.328 -4.821,-1.344c-2.347,-0 -3.741,1.144 -3.741,2.834c0,1.869 1.834,2.73 3.993,3.685c2.693,1.176 5.679,2.541 5.679,6.3c0,3.758 -3.049,6.078 -7.167,6.078c-2.031,0.049 -4.041,-0.425 -5.837,-1.375l-0,-3.391c1.688,1.224 3.721,1.879 5.805,1.869c2.285,-0 3.773,-1.113 3.773,-3.045c-0,-1.932 -1.782,-2.677 -4.003,-3.664c-2.631,-1.207 -5.701,-2.541 -5.701,-6.299c0,-3.759 3.008,-5.911 7.105,-5.911c1.696,-0.023 3.375,0.336 4.915,1.05l-0,3.213Z" style="fill:#1a1a18;fill-rule:nonzero;"/><path id="Shape4" serif:id="Shape" d="M201.003,190.336l0,16.105l-3.144,-0l0,-2.761c-0.869,1.96 -2.886,3.15 -5.019,2.96c-3.144,0 -5.166,-1.973 -5.166,-5.312l-0,-10.992l3.143,-0l0,10.226c0,2.257 1.205,3.401 3.039,3.401c2.379,0 4.003,-1.711 4.003,-4.861l0,-8.766l3.144,-0Zm-11.988,-4.2c-0.006,-1.059 0.846,-1.923 1.904,-1.931c1.057,-0.008 1.922,0.844 1.931,1.904c0.01,1.059 -0.839,1.927 -1.896,1.938c-0.515,0.021 -1.015,-0.173 -1.382,-0.535c-0.368,-0.362 -0.569,-0.86 -0.557,-1.376Zm7.01,0c-0.004,-0.779 0.462,-1.483 1.179,-1.783c0.718,-0.3 1.545,-0.136 2.095,0.414c0.55,0.551 0.713,1.38 0.414,2.099c-0.3,0.719 -1.003,1.185 -1.78,1.181c-0.509,0.009 -0.999,-0.19 -1.358,-0.55c-0.36,-0.36 -0.558,-0.851 -0.55,-1.361Z" style="fill:#1a1a18;fill-rule:nonzero;"/><path id="Shape5" serif:id="Shape" d="M221.783,183.974l0,22.467l-3.144,-0l0,-2.446c-1.031,1.721 -2.912,2.746 -4.914,2.677c-4.443,-0 -6.854,-3.916 -6.854,-8.2c0,-5.123 2.924,-8.399 6.917,-8.399c1.975,-0.026 3.818,0.991 4.851,2.678l0,-8.809l3.144,0.032Zm-3.144,14.299c0,-4.063 -2.473,-5.428 -4.275,-5.428c-2.347,0 -4.286,1.869 -4.286,5.69c-0,3.234 1.813,5.397 4.192,5.397c2.221,-0 4.369,-1.554 4.369,-5.659Z" style="fill:#1a1a18;fill-rule:nonzero;"/><path id="Shape6" serif:id="Shape" d="M231.749,192.782c1.03,-1.689 2.875,-2.708 4.852,-2.677c3.992,-0 6.916,3.244 6.916,8.399c-0,4.283 -2.41,8.199 -6.885,8.199c-1.993,0.064 -3.863,-0.961 -4.883,-2.677l-0,2.446l-3.144,0l0,-22.467l3.144,0l-0,8.777Zm8.561,5.753c0,-3.821 -1.938,-5.69 -4.286,-5.69c-1.802,0 -4.275,1.365 -4.275,5.428c-0,4.063 2.096,5.659 4.37,5.659c2.273,-0 4.191,-2.163 4.191,-5.397Z" style="fill:#1a1a18;fill-rule:nonzero;"/><path id="Shape7" serif:id="Shape" d="M249.762,191.155c1.545,-0.732 3.239,-1.091 4.946,-1.05c4.381,-0 6.288,2.1 6.288,6.142l-0,10.225l-3.081,0l0,-1.9c-0.978,1.414 -2.639,2.192 -4.349,2.037c-3.144,-0 -5.04,-2.037 -5.04,-4.672c-0,-3.087 2.441,-4.903 6.633,-4.903l2.662,0l-0,-0.913c-0,-2.1 -0.86,-3.339 -3.427,-3.339c-1.659,0.019 -3.277,0.515 -4.663,1.428l0.031,-3.055Zm5.68,8.105c-2.505,-0 -3.584,1.144 -3.584,2.477c0,1.334 0.88,2.384 2.725,2.384c0.851,0.091 1.7,-0.191 2.328,-0.775c0.627,-0.585 0.97,-1.412 0.941,-2.27l0,-1.816l-2.41,-0Z" style="fill:#1a1a18;fill-rule:nonzero;"/><path id="Path4" serif:id="Path" d="M265.617,190.336l3.458,-0l2.002,5.249c2.253,5.848 2.504,6.803 2.504,6.803c0,0 0.283,-0.955 2.285,-6.803l1.813,-5.249l3.301,-0l-5.806,15.664c-1.75,4.672 -4.192,6.194 -7.084,6.194c-0.49,0.013 -0.98,-0.04 -1.456,-0.157l-0,-2.625c0.343,0.082 0.695,0.124 1.048,0.126c2.095,0 3.489,-1.144 4.317,-3.402l-6.382,-15.8Z" style="fill:#1a1a18;fill-rule:nonzero;"/><path id="Shape8" serif:id="Shape" d="M297.945,205.591c-1.467,0.694 -3.071,1.053 -4.694,1.049c-5.041,0 -8.185,-3.37 -8.185,-8.168c0,-5.312 3.144,-8.304 7.2,-8.304c4.055,-0 6.696,2.52 6.696,7.475c-0.018,0.703 -0.081,1.405 -0.189,2.1l-10.563,-0c0.44,2.824 2.536,4.315 5.449,4.315c1.516,0.024 3.006,-0.395 4.286,-1.208l0,2.741Zm-2.001,-8.935c-0.063,-2.352 -1.3,-3.937 -3.616,-3.937c-2.022,0 -3.772,1.491 -4.191,4.515l7.765,-0l0.042,-0.578Z" style="fill:#1a1a18;fill-rule:nonzero;"/><path id="Path5" serif:id="Path" d="M308.099,193.16c0.581,-1.818 2.287,-3.036 4.192,-2.992c0.331,-0 0.662,0.035 0.985,0.105l0,3.045c-0.47,-0.2 -0.977,-0.297 -1.488,-0.284c-2.221,0 -3.709,2.289 -3.709,4.829l-0,8.578l-3.144,-0l-0,-16.105l3.144,-0l0.02,2.824Z" style="fill:#1a1a18;fill-rule:nonzero;"/><path id="Path6" serif:id="Path" d="M321.23,193.097c0.897,-1.934 2.884,-3.121 5.009,-2.992c3.144,-0 5.176,2.1 5.176,5.438l0,10.898l-3.143,-0l-0,-10.163c-0,-2.32 -1.268,-3.464 -3.081,-3.464c-2.096,-0 -3.993,1.648 -3.993,4.892l0,8.735l-3.143,-0l-0,-16.105l3.143,-0l0.032,2.761Z" style="fill:#1a1a18;fill-rule:nonzero;"/></g></g><text x="33.054px" y="34.662px" style="font-family:'TimesNewRomanPSMT', 'Times New Roman', serif;font-size:26.667px;">Datenbereitstellung durch:</text></svg>