<?xml version="1.0" encoding="UTF-8"?>
<svg width="257px" height="100px" viewBox="0 0 257 100" version="1.1" xmlns="http://www.w3.org/2000/svg" xmlns:xlink="http://www.w3.org/1999/xlink">
    <title> Main / Logos / Südbayern</title>
    <g id="-Main-/-Logos-/-Südbayern" stroke="none" stroke-width="1" fill="none" fill-rule="evenodd">
        <g id="Die-Autobahn_Logo_Farbe_RGB_NL-Südbayern" fill-rule="nonzero">
            <path d="M102.171254,3.1496063 L110.565015,3.1496063 C114.057558,3.01410752 117.457275,4.29422233 119.996208,6.7007874 C122.4289,9.04605957 123.759117,12.31204 123.658654,15.6929134 C123.658654,19.6351706 122.474516,22.8267717 120.106239,25.2677165 C117.737961,27.7086614 114.557554,28.9265092 110.565015,28.9212767 L102.171254,28.9212767 L102.171254,3.1496063 Z M107.091193,24.9055118 L110.494281,24.9055118 C113.19265,24.9055118 115.238695,24.0708661 116.632416,22.4015748 C118.093858,20.4798532 118.818893,18.0967354 118.675841,15.6850394 C118.759464,13.4349238 117.954695,11.2424272 116.435933,9.58267717 C114.840398,7.95738316 112.62488,7.09705046 110.352813,7.22047244 L107.028318,7.22047244 L107.091193,24.9055118 Z M125.607768,3.72440945 C125.589742,2.99275691 125.87414,2.28613238 126.3937,1.77165354 C126.912152,1.24459156 127.619918,0.947840388 128.358532,0.947840388 C129.097147,0.947840388 129.804912,1.24459156 130.323364,1.77165354 C130.842924,2.28613238 131.127322,2.99275691 131.109297,3.72440945 C131.131357,4.46605851 130.847005,5.18396507 130.323364,5.70866142 C129.804912,6.2357234 129.097147,6.53247457 128.358532,6.53247457 C127.619918,6.53247457 126.912152,6.2357234 126.3937,5.70866142 C125.85361,5.18880682 125.554507,4.46676315 125.568471,3.71653543 L125.607768,3.72440945 Z M126.063609,28.9212598 L126.063609,9.52755906 L130.645596,9.52755906 L130.645596,28.9133858 L126.063609,28.9212598 Z M148.918532,23.8740157 L148.918532,27.8110236 C147.551009,28.6929134 145.591417,29.1338583 143.039755,29.1338583 C139.958899,29.1338583 137.527747,28.2178478 135.7463,26.3858268 C133.945278,24.4768247 132.982837,21.9244245 133.074128,19.2992126 C133.074128,16.2178478 133.915076,13.7979003 135.596972,12.0393701 C137.221776,10.3016372 139.508405,9.33945799 141.884434,9.39370079 C144.114162,9.28502605 146.286999,10.119218 147.873242,11.6929134 C149.350795,13.2204724 150.089572,15.4514436 150.089572,18.3858268 C150.071387,19.3073717 149.982048,20.226125 149.822355,21.1338583 L137.695413,21.1338583 C137.956004,22.4313598 138.700901,23.5803635 139.778135,24.3464567 C140.94138,25.1159177 142.314678,25.5039115 143.707798,25.4566929 C145.55815,25.5023092 147.37316,24.9440763 148.879235,23.8661417 L148.918532,23.8740157 Z M145.774801,17.6377953 L145.774801,17.0629921 C145.781279,15.9788189 145.427341,14.9233321 144.768807,14.0629921 C144.078089,13.286786 143.069659,12.871628 142.033761,12.9370079 C140.948153,12.9344022 139.909834,13.3818563 139.165107,14.1732283 C138.280774,15.1397325 137.729747,16.3652981 137.593242,17.6692913 L145.774801,17.6377953 Z M119.320306,63.3070866 L117.465505,57.480315 L107.727798,57.480315 L105.896575,63.3307087 L100.858746,63.3307087 L109.559021,37.5433071 L115.783609,37.5433071 L124.483884,63.3149606 L119.320306,63.3070866 Z M108.99315,53.5433071 L116.23945,53.5433071 L115.901498,52.4015748 C115.036972,49.6456693 114.329633,47.3307087 113.77948,45.4566929 C113.229327,43.5826772 112.899235,42.4015748 112.765627,41.9212598 L112.6163,41.1338583 C112.390999,42.4094488 111.295933,46.167979 109.331101,52.4094488 L108.99315,53.5433071 Z M137.891896,43.9448819 L142.51318,43.9448819 L142.51318,63.3149606 L137.891896,63.3149606 L137.891896,60.1653543 C136.870183,62.4094488 134.889633,63.5354331 131.934526,63.5354331 C130.225785,63.6379722 128.552385,63.0181998 127.321101,61.8267717 C126.183699,60.5063452 125.618063,58.7864334 125.749235,57.0472441 L125.749235,43.9291339 L130.323364,43.9291339 L130.323364,55.976378 C130.253297,56.9900779 130.577149,57.9916629 131.227187,58.7716535 C131.874524,59.4254284 132.769211,59.7719439 133.687156,59.7244094 C134.885641,59.7912563 136.047153,59.296691 136.830887,58.3858268 C137.644032,57.1986575 138.019181,55.7648591 137.891896,54.3307087 L137.891896,43.9448819 Z M151.771468,47.3858268 L151.771468,57.2362205 C151.69157,57.9104516 151.921748,58.5845347 152.397118,59.0684496 C152.872487,59.5523645 153.541557,59.7936942 154.215719,59.7244094 C155.164726,59.7336217 156.094977,59.4595071 156.88789,58.9370079 L156.88789,62.8740157 C155.80654,63.3474317 154.632661,63.5708048 153.453364,63.5275591 C149.261723,63.5275591 147.165902,61.4120735 147.165902,57.1811024 L147.165902,47.3700787 L144.257951,47.3700787 L144.257951,43.9291339 L147.165902,43.9291339 L147.165902,39.2677165 L151.740031,39.2677165 L151.740031,43.9291339 L156.549939,43.9291339 L156.549939,47.3700787 L151.771468,47.3858268 Z M167.63945,63.6220689 C164.71578,63.6220689 162.431335,62.7060367 160.786116,60.8740157 C159.103435,58.9257801 158.223914,56.4089688 158.326147,53.8346457 C158.22647,51.1584929 159.138692,48.5432564 160.880428,46.511811 C162.592341,44.5893979 165.069595,43.5302682 167.63945,43.6220472 C170.620754,43.6220472 172.923537,44.5590551 174.547798,46.4330709 C176.212454,48.4185973 177.083314,50.9518981 176.992049,53.5433071 C177.092598,56.1746433 176.216166,58.7499412 174.53208,60.7716535 C172.8921,62.6771654 170.594557,63.6272966 167.63945,63.6220689 Z M167.63945,47.3700787 C166.281841,47.3189038 165.003247,48.0091284 164.299235,49.1732283 C163.479321,50.5307853 163.074897,52.0994851 163.136055,53.6850394 C163.07846,55.260969 163.491684,56.8182553 164.322813,58.1574803 C165.088804,59.2685015 166.350615,59.9317235 167.698394,59.9317235 C169.046174,59.9317235 170.307985,59.2685015 171.073976,58.1574803 C171.883508,56.8106306 172.282355,55.2560498 172.221437,53.6850394 C172.288246,52.0860971 171.904195,50.5006311 171.113272,49.1102362 C170.36041,47.9370233 169.027986,47.2695662 167.63945,47.3700787 Z M184.309083,36.2834646 L184.309083,46.8740157 C185.503903,44.8141849 187.732707,43.5796977 190.109266,43.6614173 C192.406267,43.6066618 194.603728,44.600264 196.082355,46.3622047 C197.65422,48.1574803 198.440153,50.5853018 198.440153,53.6456693 C198.510719,56.1761248 197.720906,58.6554977 196.200245,60.6771654 C194.784228,62.5822865 192.525944,63.6708782 190.156422,63.5905512 C187.758988,63.6737775 185.512028,62.4224606 184.316942,60.3385827 L184.316942,63.3149606 L179.695657,63.3149606 L179.695657,36.2834646 L184.309083,36.2834646 Z M189.118991,59.6456693 C190.423029,59.6575424 191.654728,59.0463903 192.435627,58 C193.36748,56.7757786 193.84038,55.2624547 193.771713,53.7244094 C193.873151,52.0984913 193.390895,50.4898279 192.412049,49.1889764 C191.616394,48.1549354 190.382832,47.5544899 189.079694,47.5669291 C187.815079,47.5718564 186.609962,48.1056109 185.755199,49.0393701 C184.791121,50.015748 184.309083,51.4855643 184.309083,53.4488189 C184.195696,55.1016516 184.681258,56.7399893 185.676606,58.0629921 C186.525807,59.0853767 187.791569,59.6673255 189.118991,59.6456693 L189.118991,59.6456693 Z M201.583884,49.1732283 L201.583884,44.9291339 C203.03,44.0314961 205.120581,43.5826772 207.871346,43.5826772 C213.110897,43.5826772 215.730673,46.0314961 215.730673,50.9291339 L215.730673,63.3149606 L211.187982,63.3149606 L211.187982,60.9527559 C210.292018,62.6141732 208.617982,63.4409449 206.150153,63.4409449 C204.540502,63.532567 202.962933,62.9640357 201.780367,61.8661417 C200.69786,60.8005436 200.108201,59.330776 200.153486,57.8110236 C200.087572,56.1164925 200.861148,54.498671 202.220489,53.488189 C203.588012,52.4488189 205.576422,51.9133858 208.17,51.9133858 L210.999358,51.9133858 L210.999358,50.7322835 C211.061137,49.8356597 210.75775,48.9522043 210.15841,48.2834646 C209.347559,47.6402932 208.318873,47.3381695 207.289755,47.4409449 C205.25685,47.4279717 203.267649,48.0318866 201.583884,49.1732283 L201.583884,49.1732283 Z M210.97578,54.984252 L208.617982,54.984252 C207.647037,54.9192548 206.682092,55.1796399 205.875076,55.7244094 C205.270143,56.1654147 204.915765,56.8725607 204.924098,57.6220472 C204.924098,59.2519685 205.859358,60.0708661 207.745596,60.0708661 C208.622137,60.1144934 209.476976,59.7890473 210.103394,59.1732283 C210.695476,58.5334584 211.006873,57.6826053 210.96792,56.8110236 L210.97578,54.984252 Z M223.747187,36.2834646 L223.747187,47.2440945 C224.795097,44.8976378 226.767788,43.7244094 229.66526,43.7244094 C231.366184,43.6533012 233.019189,44.298607 234.22367,45.503937 C235.381611,46.6850394 235.960581,48.3989501 235.960581,50.6456693 L235.960581,63.3149606 L231.378593,63.3149606 L231.378593,51.4251969 C231.439736,50.3857116 231.105559,49.3616123 230.443333,48.5590551 C229.825712,47.8772778 228.941251,47.5003913 228.022661,47.5275591 C226.906591,47.533671 225.839467,47.9874082 225.059694,48.7874016 C224.184689,49.6272966 223.747187,51.0052493 223.747187,52.9212598 L223.747187,63.3149606 L219.165199,63.3149606 L219.165199,36.2834646 L223.747187,36.2834646 Z M244.039969,43.9291339 L244.039969,47.2440945 C245.129796,44.8713911 247.112966,43.6850394 249.98948,43.6850394 C251.697235,43.5961432 253.36248,44.2371587 254.571468,45.4488189 C255.766461,46.8166401 256.371299,48.6033977 256.253364,50.4173228 L256.253364,63.3149606 L251.671376,63.3149606 L251.671376,51.3858268 C251.747981,50.3435664 251.421555,49.3117109 250.759694,48.503937 C250.109206,47.837777 249.205242,47.4823937 248.276147,47.5275591 C247.112033,47.5132668 246.00345,48.0252094 245.258165,48.9212598 C244.374725,50.059028 243.941,51.4831806 244.039969,52.9212598 L244.039969,63.3149606 L239.457982,63.3149606 L239.457982,43.9291339 L244.039969,43.9291339 Z" id="Shape" fill="#1A1A18"></path>
            <polygon id="Path" fill="#EED10F" points="53.1919266 53.7637795 53.1919266 52.0944882 78.5461162 52.0944882 78.5461162 55.984252 53.1919266 55.984252"></polygon>
            <polygon id="Path" fill="#C20E1A" points="27.7041284 53.7637795 27.7041284 52.0944882 53.1919266 52.0944882 53.1919266 55.984252 27.7041284 55.984252"></polygon>
            <path d="M12.6142202,59.7874016 L0.188623853,96.0629921 L28.678685,96.0629921 L33.8344037,59.7716535 L12.6142202,59.7874016 Z M26.4544954,93.511811 L3.77247706,93.511811 L14.4454434,62.3543307 L30.887156,62.3543307 L26.4544954,93.511811 Z" id="Shape" fill="#1A1A18"></path>
            <path d="M68.57263,59.7874016 L47.3524465,59.7874016 L52.5081651,96.0629921 L80.9982263,96.0629921 L68.57263,59.7874016 Z M50.2996942,62.3543307 L66.7414067,62.3543307 L77.4143731,93.519685 L54.7323547,93.519685 L50.2996942,62.3543307 Z" id="Shape" fill="#1A1A18"></path>
            <path d="M48.3270031,0.661417323 L32.8598471,0.661417323 L16.5045872,48.3858268 L35.4612844,48.3858268 L39.343792,20.9527559 L41.8430581,20.9527559 L45.7255657,48.3858268 L64.658685,48.3858268 L48.3270031,0.661417323 Z M44.0672477,18.3937008 L37.1196024,18.3937008 L33.2449541,45.8110236 L20.1120183,45.8110236 L34.6910703,3.22834646 L46.4800612,3.22834646 L61.0748318,45.8110236 L47.941896,45.8110236 L44.0672477,18.3937008 Z" id="Shape" fill="#1A1A18"></path>
            <polygon id="Path" fill="#1A1A18" points="2.47568807 55.984252 27.837737 55.984252 27.837737 53.7637795 27.837737 52.0944882 2.47568807 52.0944882"></polygon>
            <path d="M110.714343,82.4251969 C109.618342,81.777362 108.371525,81.4297734 107.099052,81.4173228 C105.338563,81.4173228 104.293272,82.2755906 104.293272,83.5433071 C104.293272,84.9448819 105.668654,85.5905512 107.287676,86.3070866 C109.307523,87.1889764 111.547431,88.2125984 111.547431,91.0314961 C111.547431,93.8503937 109.260367,95.5905512 106.171651,95.5905512 C104.648455,95.6269199 103.141347,95.271803 101.794006,94.5590551 L101.794006,92.015748 C103.060117,92.934043 104.585031,93.4249128 106.148073,93.4173228 C107.861407,93.4173228 108.977431,92.5826772 108.977431,91.1338583 C108.977431,89.6850394 107.641346,89.1259843 105.975168,88.3858268 C104.002477,87.480315 101.699694,86.480315 101.699694,83.6614173 C101.699694,80.8425197 103.955321,79.2283465 107.028318,79.2283465 C108.300338,79.2110245 109.560004,79.480112 110.714343,80.015748 L110.714343,82.4251969 Z" id="Path" fill="#1A1A18"></path>
            <path d="M125.961437,83.3307087 L125.961437,95.4094488 L123.603639,95.4094488 L123.603639,93.3385827 C122.951439,94.8087802 121.438613,95.7010856 119.839021,95.5590551 C117.481223,95.5590551 115.964373,94.0787402 115.964373,91.5748031 L115.964373,83.3307087 L118.322171,83.3307087 L118.322171,91 C118.322171,92.6929134 119.225994,93.5511811 120.601376,93.5511811 C122.385443,93.5511811 123.603639,92.2677165 123.603639,89.9055118 L123.603639,83.3307087 L125.961437,83.3307087 Z M116.970367,80.1811024 C116.96608,79.3863409 117.604905,78.7381705 118.398174,78.7324076 C119.191444,78.7266448 119.839583,79.3654658 119.8468,80.160206 C119.854017,80.9549462 119.217585,81.6054756 118.424343,81.6141732 C118.038356,81.6294974 117.663225,81.4842406 117.387854,81.2128286 C117.112482,80.9414166 116.961383,80.5680087 116.970367,80.1811024 L116.970367,80.1811024 Z M122.228257,80.1811024 C122.225079,79.5968737 122.574329,79.0685456 123.112477,78.8434977 C123.650625,78.6184499 124.271146,78.7412297 124.683494,79.1543478 C125.095841,79.567466 125.218392,80.1891472 124.993764,80.7283009 C124.769136,81.2674546 124.241793,81.6173571 123.658654,81.6141732 C123.27735,81.6206312 122.909765,81.4717221 122.640104,81.2015566 C122.370442,80.931391 122.221811,80.5631196 122.228257,80.1811024 Z" id="Shape" fill="#1A1A18"></path>
            <path d="M141.546483,78.5590551 L141.546483,95.4094488 L139.188685,95.4094488 L139.188685,93.5748031 C138.415487,94.8654387 137.004234,95.6341853 135.502661,95.5826772 C132.170306,95.5826772 130.362661,92.6456693 130.362661,89.4330709 C130.362661,85.5905512 132.555413,83.1338583 135.549817,83.1338583 C137.031132,83.1141811 138.413479,83.8769399 139.188685,85.1417323 L139.188685,78.5354331 L141.546483,78.5590551 Z M139.188685,89.2834646 C139.188685,86.2362205 137.333884,85.2125984 135.98208,85.2125984 C134.22159,85.2125984 132.767615,86.6141732 132.767615,89.480315 C132.767615,91.9055118 134.127278,93.5275591 135.911346,93.5275591 C137.577523,93.5275591 139.188685,92.3622047 139.188685,89.2834646 Z" id="Shape" fill="#1A1A18"></path>
            <path d="M149.020703,85.1653543 C149.793651,83.8981924 151.177465,83.1346243 152.659572,83.1574803 C155.653976,83.1574803 157.846728,85.5905512 157.846728,89.4566929 C157.846728,92.6692913 156.039083,95.6062992 152.68315,95.6062992 C151.188688,95.6542035 149.786135,94.8852781 149.020703,93.5984252 L149.020703,95.4330709 L146.662905,95.4330709 L146.662905,78.5826772 L149.020703,78.5826772 L149.020703,85.1653543 Z M155.441774,89.480315 C155.441774,86.6141732 153.987798,85.2125984 152.227309,85.2125984 C150.875505,85.2125984 149.020703,86.2362205 149.020703,89.2834646 C149.020703,92.3307087 150.592569,93.5275591 152.298043,93.5275591 C154.003517,93.5275591 155.441774,91.9055118 155.441774,89.480315 Z" id="Shape" fill="#1A1A18"></path>
            <path d="M162.530887,83.9448819 C163.689281,83.3963828 164.959605,83.1267433 166.240489,83.1574803 C169.525688,83.1574803 170.956086,84.7322835 170.956086,87.7637795 L170.956086,95.4330709 L168.645443,95.4330709 L168.645443,94.007874 C167.912045,95.0682529 166.666248,95.6517142 165.383823,95.5354331 C163.026024,95.5354331 161.603486,94.007874 161.603486,92.0314961 C161.603486,89.7165354 163.434709,88.3543307 166.57844,88.3543307 L168.574709,88.3543307 L168.574709,87.6692913 C168.574709,86.0944882 167.930245,85.1653543 166.004709,85.1653543 C164.760637,85.179594 163.546781,85.5512634 162.507309,86.2362205 L162.530887,83.9448819 Z M166.790642,90.023622 C164.912263,90.023622 164.102752,90.8818898 164.102752,91.8818898 C164.102752,92.8818898 164.762936,93.6692913 166.146177,93.6692913 C166.78475,93.7381186 167.421722,93.5260362 167.892149,93.0879631 C168.362576,92.64989 168.620192,92.02891 168.598287,91.3858268 L168.598287,90.023622 L166.790642,90.023622 Z" id="Shape" fill="#1A1A18"></path>
            <path d="M174.422049,83.3307087 L177.015627,83.3307087 L178.516758,87.2677165 C180.206514,91.6535433 180.395138,92.3700787 180.395138,92.3700787 C180.395138,92.3700787 180.607339,91.6535433 182.108471,87.2677165 L183.468135,83.3307087 L185.943823,83.3307087 L181.589755,95.0787402 C180.277248,98.5826772 178.446024,99.7244094 176.27685,99.7244094 C175.909074,99.7340095 175.541668,99.6942873 175.184404,99.6062992 L175.184404,97.6377953 C175.44192,97.699258 175.705617,97.7309608 175.970336,97.7322835 C177.542202,97.7322835 178.587492,96.8740157 179.208379,95.1811024 L174.422049,83.3307087 Z" id="Path" fill="#1A1A18"></path>
            <path d="M198.668073,94.7716535 C197.56734,95.2928215 196.364555,95.5618019 195.147095,95.5590759 C191.366758,95.5590759 189.00896,93.0314961 189.00896,89.4330709 C189.00896,85.4488189 191.366758,83.2047244 194.408318,83.2047244 C197.449878,83.2047244 199.430428,85.0944882 199.430428,88.8110236 C199.416927,89.3384484 199.369674,89.8644625 199.28896,90.3858268 L191.366758,90.3858268 C191.69685,92.503937 193.268716,93.6220472 195.453609,93.6220472 C196.590289,93.6405656 197.707586,93.3258239 198.668073,92.7165354 L198.668073,94.7716535 Z M197.166942,88.0708661 C197.119786,86.3070866 196.192385,85.1181102 194.455474,85.1181102 C192.938624,85.1181102 191.626116,86.2362205 191.311743,88.503937 L197.135505,88.503937 L197.166942,88.0708661 Z" id="Shape" fill="#1A1A18"></path>
            <path d="M206.283761,85.4488189 C206.719062,84.0851462 207.998834,83.171605 209.427492,83.2047244 C209.675853,83.2044369 209.923528,83.2308346 210.166269,83.2834646 L210.166269,85.5669291 C209.813699,85.4169783 209.433142,85.3444838 209.050245,85.3543307 C207.384067,85.3543307 206.268043,87.0708661 206.268043,88.976378 L206.268043,95.4094488 L203.910245,95.4094488 L203.910245,83.3307087 L206.268043,83.3307087 L206.283761,85.4488189 Z" id="Path" fill="#1A1A18"></path>
            <path d="M216.131498,85.4015748 C216.804058,83.9507968 218.294561,83.0604473 219.888257,83.1574803 C222.246055,83.1574803 223.770765,84.7322835 223.770765,87.2362205 L223.770765,95.4094488 L221.412966,95.4094488 L221.412966,87.7874016 C221.412966,86.0472441 220.461988,85.1889764 219.102324,85.1889764 C217.530459,85.1889764 216.10792,86.4251969 216.10792,88.8582677 L216.10792,95.4094488 L213.750122,95.4094488 L213.750122,83.3307087 L216.10792,83.3307087 L216.131498,85.4015748 Z" id="Path" fill="#1A1A18"></path>
        </g>
    </g>
</svg>